<svg id="Capa_1" data-name="Capa 1" xmlns="http://www.w3.org/2000/svg" viewBox="0 0 576.21 775.34"><defs><style>.cls-1,.cls-2,.cls-3,.cls-4{font-size:140px;font-family:FranklinGothic-Heavy, Franklin Gothic Heavy;}.cls-1,.cls-10{fill:#009bdb;}.cls-1,.cls-3{letter-spacing:-0.01em;}.cls-2,.cls-3,.cls-9{fill:#f40303;}.cls-2,.cls-4{letter-spacing:-0.01em;}.cls-4,.cls-8{fill:#009045;}.cls-5{fill:#4a72b2;}.cls-6{fill:#a80b0b;}.cls-7{fill:#336535;}</style></defs><title>ENDECOLOGO</title><text class="cls-1" transform="translate(0 732.41) scale(1.14 1)">E</text><text class="cls-1" transform="translate(86.09 732.41) scale(1.14 1)">N</text><text class="cls-2" transform="translate(183.94 732.41) scale(1.14 1)">D</text><text class="cls-3" transform="translate(286.39 732.41) scale(1.14 1)">E</text><text class="cls-4" transform="translate(375.02 732.41) scale(1.14 1)">C</text><text class="cls-4" transform="translate(467.32 732.41) scale(1.14 1)">O</text><polyline class="cls-5" points="292.21 515.73 292.21 479.61 128.81 386.95 84.36 395.65"/><path class="cls-6" d="M490.13,125.65,373.07,58.07C334.54,36.35,269.9,38.33,231.92,60.38L70.06,167.73,304.5,318.57,492.18,210.08C531,187.57,529.47,147.83,490.13,125.65Zm-105.5,84.6-84.05,48.8-145-84.17,87.46-49.49c61.9-40.23,75.44-38.5,127-4.28l14.57,8.46C423,151.85,423,188,384.63,210.25Z" transform="translate(-20.85 -16.77)"/><path class="cls-7" d="M529,407.78l-21.81-12.22a24.65,24.65,0,0,0-24.1,0L325.63,484a24.63,24.63,0,0,0-12.57,21.48v36.25" transform="translate(-20.85 -16.77)"/><polyline class="cls-5" points="84.36 275.69 128.81 269.52 292.21 359.61 292.21 395.76"/><polyline class="cls-5" points="77.87 155.14 128.81 125.71 128.81 425.61 77.87 450.76"/><polyline class="cls-8" points="508.17 185.49 508.15 153.22 508.14 127.34 480.79 137.9 479.89 167.31"/><path class="cls-9" d="M498.69,99.65,381.63,32.07C343.1,10.35,278.46,12.33,240.48,34.38L53.25,142.48,313.06,292.57,500.74,184.08C539.51,161.57,538,121.83,498.69,99.65Zm-105.5,84.6-84.05,48.8L155.6,143.91l84.05-48.8c61.91-40.22,87.41-34.22,139,0l14.57,8.46C431.56,125.85,431.56,162,393.19,184.25Z" transform="translate(-20.85 -16.77)"/><polygon class="cls-7" points="248.43 251.8 248.43 548.34 310.21 515.73 300.39 281.67 248.43 251.8"/><polygon class="cls-10" points="292.21 335.78 292.21 275.8 32.4 125.71 32.4 425.61 292.21 575.71 292.21 515.73 84.36 395.65 84.36 335.67 248.43 430.45 292.21 455.74 292.21 395.76 248.43 370.47 84.36 275.69 84.36 215.71 292.21 335.78"/><polyline class="cls-7" points="248.4 364.84 248.4 431.43 292.18 459.51 292.18 392.92"/><path class="cls-8" d="M529,206.27V167.73l-216,124.84V592.48L529,467.79v-60L365,502.5V322.44l145.42-84A37.15,37.15,0,0,0,529,206.27Z" transform="translate(-20.85 -16.77)"/></svg>