<?xml version="1.0" encoding="utf-8"?>
<!-- Generator: Adobe Illustrator 22.1.0, SVG Export Plug-In . SVG Version: 6.00 Build 0)  -->
<svg version="1.1" id="Capa_1" xmlns="http://www.w3.org/2000/svg" xmlns:xlink="http://www.w3.org/1999/xlink" x="0px" y="0px"
	 viewBox="0 0 56.3 17.8" style="enable-background:new 0 0 56.3 17.8;" xml:space="preserve">
<style type="text/css">
	.st0{fill:#FF2C2C;stroke:#8D4EF2;stroke-miterlimit:10;}
	.st1{stroke:#0F00B9;stroke-miterlimit:10;}
</style>
<title>Recurso 2</title>
<g id="Capa_2_1_">
	<g id="ENDECO">
		<path class="st0" d="M2.9,4.6L18.3,1l1.3-0.1l18,0.1L39,1.1l15.8,3.8l0,5.7L53,11L35.6,11l-1.2,0.1l-10.3,2.4l-3-0.3l0-2.8
			l1.8-0.4L39.3,10l1.8-0.4l0-1.9l-1.8-0.4l-6.4,0l-1.7-0.4l0-1.3L32.9,5l4.8,0l1.2-0.7l-2-0.5l-1.2-0.1L23.8,3.6l-1.3,0.1l-6.4,1.5
			l-1.2,0.1l-10.7,0L2.9,4.6z"/>
		<path class="st1" d="M6.9,16c0-0.2,1.6-0.9,1.9-1.3l-0.4,0c-0.4-0.1-0.4-0.3,0-0.3c0.1,0,0.2,0,0.3-0.1c1-0.1,3.8,0.1,5,0
			c0.2,0.2-0.1,0.3-0.8,0.4c-0.2,0-0.4,0-0.5,0c-0.7,0-1.3,0-2-0.1l0.3,0.1c0,0.2-0.2,0.3-0.5,0.4c0.7,0,1.4,0,2.1,0
			c0.2,0.1,0,0.2-0.4,0.3c-0.7,0-1.4,0-2.2,0c-0.3,0.2-0.6,0.4-0.8,0.5c1.4,0,3.1-0.2,3.2-0.1c0.3,0.2-0.2,0.4-1,0.4
			c-0.1,0-0.3,0-0.5,0l-2.7,0C7.3,16.3,6.9,16.2,6.9,16z"/>
		<path class="st1" d="M12.6,16c0-0.3,2.2-1.1,2.3-1.7c0.6,0,1.2,0,1.7,0.1l0,0c1,0.2,1.1,0.6,1.5,1c0.6-0.3,1.4-0.8,1.4-1.1
			c0.9,0,1.8,0.1,1.8,0.2c0.1,0.5-2.4,1.4-1.9,1.7c0.6,0.3-1.7,0.1-2-0.1s-0.8-0.7-1.2-1.1c-0.8,0.4-1.8,0.9-1.4,1.1
			C13.6,16.3,12.6,16.3,12.6,16z"/>
		<path class="st1" d="M22.9,14.4c0.6,0,1.8,0.1,1.9,0.2c0.7-0.2,1.6-0.2,2.5-0.2c1.3,0.1,2,0.5,1.3,1c-1,0.7-3.9,1.1-6.9,0.9
			c-0.7,0-1.2-0.1-1.2-0.3C20.6,15.8,22.1,15.2,22.9,14.4z M22.8,16c1.4,0,2.7-0.2,3.4-0.5c0.7-0.3,0.6-0.7-0.7-0.6
			c-0.7,0.1-1.3,0.2-1.6,0.4C23.5,15.6,22.9,15.9,22.8,16z"/>
		<path class="st1" d="M28.8,16.1c0-0.2,1.6-0.9,2-1.3l-0.5,0c-0.4-0.1-0.3-0.3,0.1-0.4c0,0,0.1,0,0.1,0c1.1-0.1,3.8,0.1,5.1,0
			c0.2,0.2-0.3,0.3-1,0.4c-0.1,0-0.3,0-0.4,0c-0.7,0-1.3,0-2-0.1c0.2,0,0.3,0,0.3,0.1c0,0.2-0.2,0.3-0.5,0.4c0.7,0,1.4,0,2.1,0
			c0.2,0.1,0,0.2-0.4,0.3c-0.7,0-1.4,0-2.1,0c-0.4,0.2-0.6,0.3-0.8,0.5l3.1-0.1c0.3,0.2-0.2,0.4-1,0.4c-0.1,0-0.2,0-0.4,0l-2.8,0
			C29.2,16.4,28.8,16.3,28.8,16.1z"/>
		<path class="st1" d="M40.4,15.2c0-0.1,0.1-0.4-0.7-0.4c-0.8,0-1.7,0.2-2.2,0.5c-0.5,0.3-0.4,0.7,1,0.7s2.4-0.3,2.5-0.3
			c0.1,0-0.4,0.7-3,0.7c-2.6,0-3.7-0.6-2.5-1.2c0.7-0.4,2.4-0.7,4.3-0.7c1.9,0,2.9,0.3,2.3,0.6S40.4,15.3,40.4,15.2z"/>
		<path class="st1" d="M42.4,15.5c0.5-0.6,2.7-1,5.3-1c1.8,0,3,0.4,2.3,0.9c-0.7,0.5-2.9,1-5.3,1C42.4,16.4,41.8,16,42.4,15.5z
			 M47.5,15.5c0.6-0.4,0.6-0.7-0.4-0.7c-0.9,0-2.1,0.3-2.4,0.6c-0.4,0.2-0.5,0.7,0.5,0.7S47.1,15.8,47.5,15.5z"/>
	</g>
</g>
</svg>
